<svg xmlns="http://www.w3.org/2000/svg" width="48" height="32" fill="none">
  <path fill="#006FCF" d="M.5.5h47v31H.5z"/>
  <path fill="#fff" d="m37.192 8.332.945-2.62h4.325V26.3h-4.077l-1.506-1.795-1.566 1.795H23.734v-9.565h-3.822l4.78-11.023h4.649l1.122 2.5v-2.5h5.772l.963 2.62h-.006Zm-3.261 1.735-.012-1.054.396 1.054 1.92 5.228h1.908l1.932-5.228.372-1.042V15.3h2.009V7.266h-3.338l-1.519 4.078-.401 1.102-.414-1.102-1.524-4.078h-3.338v8.03h2.009v-5.23Zm-4.325 5.228h2.316l-3.468-8.03h-2.688l-3.485 8.03h2.286l.609-1.548h3.822l.608 1.548Zm-2.912-5.313.396-1.005.395 1.005.816 2.03h-2.422l.815-2.03Zm-1.347 6.759v8h6.575v-1.736h-4.566v-1.397h4.478v-1.729h-4.478v-1.403h4.566V16.74h-6.575Zm13.895 8h2.611l-3.68-4.018 3.68-3.988h-2.57l-2.375 2.602-2.363-2.602h-2.617l3.675 4.018-3.675 3.987h2.54l2.393-2.608 2.38 2.608Zm.992-4.025 2.227 2.307v-4.59l-2.227 2.277v.006Z"/>
  <path stroke="#D6D6D6" d="M.5.5h47v31H.5z"/>
</svg>
